PathFileType	4	(x/y/z)	S02_M20_T05
DataRate	CameraRate	NumFrames	NumMarkers	Units	OrigDataRate	OrigDataStartFrame	OrigNumFrames
240	240	10	51	mm	240	173	459
Frame#	Time	Sternum			R.Acromium			L.Acromium			Top.Head			R.ASIS			L.ASIS			R.PSIS			L.PSIS			R.Great.Tro			L.Great.Tro			R.Iliac.Crest			L.Iliac.Crest			V.Sacral			R.Thigh.Upper.Post			R.Thigh.Lower.Ant			R.Thigh.Lower.Post			R.Thigh.Upper.Ant			R.Knee.Lat			R.Knee.Med			R.Shank.Upper.Post			R.Shank.Lower.Ant			R.Shank.Lower.Post			R.Shank.Upper.Ant			R.Ankle.Lat			R.Ankle.Med			R.Heel.Upper			R.Heel.Med			R.Heel.Lat			R.Toe.Lat			R.Toe.Med			R.Toe.Tip			L.Thigh.Upper.Post			L.Thigh.Lower.Ant			L.Thigh.Lower.Post			L.Thigh.Upper.Ant			L.Knee.Lat			L.Knee.Med			L.Shank.Upper.Post			L.Shank.Lower.Ant			L.Shank.Lower.Post			L.Shank.Upper.Ant			L.Ankle.Lat			L.Ankle.Med			L.Heel.Upper			L.Heel.Med			L.Heel.Lat			L.Toe.Lat			L.Toe.Med			L.Toe.Tip			Cervical.Spine			Back			
		X1	Y1	Z1	X2	Y2	Z2	X3	Y3	Z3	X4	Y4	Z4	X5	Y5	Z5	X6	Y6	Z6	X7	Y7	Z7	X8	Y8	Z8	X9	Y9	Z9	X10	Y10	Z10	X11	Y11	Z11	X12	Y12	Z12	X13	Y13	Z13	X14	Y14	Z14	X15	Y15	Z15	X16	Y16	Z16	X17	Y17	Z17	X18	Y18	Z18	X19	Y19	Z19	X20	Y20	Z20	X21	Y21	Z21	X22	Y22	Z22	X23	Y23	Z23	X24	Y24	Z24	X25	Y25	Z25	X26	Y26	Z26	X27	Y27	Z27	X28	Y28	Z28	X29	Y29	Z29	X30	Y30	Z30	X31	Y31	Z31	X32	Y32	Z32	X33	Y33	Z33	X34	Y34	Z34	X35	Y35	Z35	X36	Y36	Z36	X37	Y37	Z37	X38	Y38	Z38	X39	Y39	Z39	X40	Y40	Z40	X41	Y41	Z41	X42	Y42	Z42	X43	Y43	Z43	X44	Y44	Z44	X45	Y45	Z45	X46	Y46	Z46	X47	Y47	Z47	X48	Y48	Z48	X49	Y49	Z49	X50	Y50	Z50	X51	Y51	Z51	

173	0.71667	-550.51	1063.8	298.49	-663.95	1287.3	457.93	-664.97	1302.6	167.64	-650.22	1583.9	310.98	-555.57	891.41	392.63	-583.9	868.08	177.45	-784.93	918.52	360.07	-797.58	918	287.6	-595.43	794.7	488.51	-729.35	780.69	109.78	-653.73	938.95	461.68	-710.48	918.62	123.62	-813.3	867.62	323.54	-511.05	609.43	456.28	-438.97	561.44	402.06	-493.33	523.4	432.99	-461.61	645.77	423.98	-451.13	459.43	404.42	-478.41	447.58	267.4	-509.59	242.65	395.71	-433.29	170.01	360.6	-498.06	171.07	380.49	-438.91	237.88	380.38	-483.63	84.368	359.26	-478.16	97.516	276.46	-545.05	71.814	303.73	-531.1	39.978	276.99	-540.65	41.07	340.27	-378.58	40.903	379.22	-348.32	34.809	272.25	-300.25	64.873	325.39	-783.8	570.98	139.9	-722.27	481.21	119.55	-795.29	481.64	155.44	-718.1	576.02	108.79	-760.32	408.25	126.89	-725.67	386.51	260.47	-936.14	363.12	153.11	-965.12	256	158.76	-996.52	321.36	173.26	-908.61	304.58	139.57	-1071.4	221.28	181.85	-1054.9	215.6	262.79	-1108.8	270.65	220.35	-1123.9	260.5	259.77	-1140.4	257.41	200.05	-1115.7	92.292	181	-1076.1	87.414	283.55	-1052.7	33.844	238.63	-747.06	1357.7	318.42	-816.65	1103.7	308.6
174	0.72083	-544.8	1064.5	298.82	-658.03	1287.8	458.31	-659.28	1303.4	168.05	-644.57	1584.7	312.29	-550.09	892.42	393.32	-577.88	868.64	178.07	-779.55	919.28	359.92	-791.96	918.59	287.43	-590.19	795.6	489.04	-722.84	780.77	110.23	-648.59	939.87	461.97	-704.4	919	123.83	-807.72	868.24	323.4	-506.5	609.53	456.67	-434.67	561.15	402.47	-489.29	523.41	433.31	-456.82	645.59	424.45	-447.58	459.09	404.77	-474.32	447.68	267.65	-507.95	242.91	395.63	-432.23	169.54	360.75	-497.08	171.23	380.44	-437.27	237.45	380.54	-483.39	84.433	359.23	-477.87	97.575	276.48	-544.97	71.897	303.74	-531.05	40.053	277	-540.57	41.164	340.29	-378.49	40.812	379.21	-348.24	34.537	272.16	-300.07	64.464	325.31	-774.96	570.42	139.32	-712.42	481.38	118.78	-785.47	480.91	154.64	-709.24	576.27	108.32	-749.77	408.18	125.81	-714.71	386.22	259.53	-925.32	364.13	152.31	-955.11	257.17	157.87	-985.87	322.77	172.66	-898.35	305.37	138.63	-1061.5	223.39	181.06	-1044.8	217.24	262.05	-1098	273.27	219.86	-1112.9	263.24	259.32	-1129.9	260.55	199.7	-1107.7	94.754	180.16	-1067.5	88.889	282.35	-1045.4	34.009	237.04	-741.2	1358.4	318.97	-810.85	1104.5	308.82
175	0.725	-539.15	1065.3	299.12	-652.18	1288.3	458.68	-653.64	1304.3	168.43	-638.93	1585.6	313.57	-544.67	893.44	394	-571.92	869.29	178.67	-774.2	920.05	359.84	-786.4	919.22	287.33	-584.99	796.43	489.56	-716.41	780.96	110.71	-643.47	940.79	462.29	-698.43	919.44	124.07	-802.19	868.9	323.31	-502.14	609.55	457.04	-430.55	560.77	402.89	-485.47	523.36	433.59	-452.19	645.33	424.94	-444.21	458.7	405.12	-470.56	447.7	267.89	-506.47	243.17	395.49	-431.27	169.08	360.92	-496.2	171.38	380.34	-435.77	237.03	380.72	-483.18	84.495	359.18	-477.62	97.63	276.49	-544.91	71.968	303.74	-531.01	40.114	277.01	-540.51	41.248	340.3	-378.41	40.746	379.21	-348.16	34.312	272.08	-299.92	64.121	325.24	-766.11	569.97	138.75	-702.57	481.67	118.02	-775.62	480.3	153.85	-700.38	576.63	107.87	-739.18	408.22	124.76	-703.78	386.09	258.63	-914.45	365.12	151.54	-944.96	258.29	157.03	-975.13	324.11	172.08	-887.99	306.17	137.74	-1051.4	225.4	180.32	-1034.5	218.79	261.35	-1087.2	275.61	219.47	-1102	265.62	258.95	-1119.4	263.31	199.42	-1099.2	97.039	179.25	-1058.3	90.243	281.11	-1037.4	34.329	235.39	-735.38	1359.3	319.51	-805.11	1105.3	309.07
176	0.72917	-533.56	1066.1	299.39	-646.38	1288.9	459.03	-648.07	1305.2	168.79	-633.31	1586.4	314.82	-539.31	894.46	394.67	-566.03	870.04	179.25	-768.86	920.86	359.82	-780.88	919.9	287.29	-579.82	797.21	490.09	-710.06	781.23	111.21	-638.35	941.71	462.65	-692.56	919.93	124.34	-796.7	869.6	323.3	-497.97	609.52	457.39	-426.62	560.32	403.31	-481.86	523.25	433.85	-447.72	644.99	425.44	-441.03	458.29	405.44	-467.13	447.66	268.13	-505.12	243.4	395.31	-430.41	168.64	361.1	-495.43	171.52	380.22	-434.4	236.61	380.9	-483	84.556	359.13	-477.39	97.682	276.49	-544.86	72.028	303.73	-530.98	40.164	277	-540.45	41.323	340.31	-378.35	40.701	379.21	-348.1	34.126	272.01	-299.79	63.834	325.18	-757.25	569.62	138.2	-692.72	482.08	117.28	-765.76	479.8	153.08	-691.53	577.1	107.42	-728.56	408.36	123.73	-692.91	386.12	257.8	-903.55	366.07	150.79	-934.68	259.36	156.24	-964.31	325.36	171.52	-877.54	306.96	136.89	-1041.1	227.29	179.65	-1024	220.22	260.71	-1076.4	277.66	219.18	-1091.2	267.62	258.66	-1108.9	265.68	199.21	-1090	99.129	178.28	-1048.6	91.473	279.84	-1028.6	34.792	233.69	-729.61	1360.1	320.02	-799.41	1106.2	309.34
177	0.73333	-528.03	1066.9	299.63	-640.64	1289.5	459.37	-642.56	1306.1	169.11	-627.69	1587.3	316.04	-534	895.48	395.31	-560.2	870.88	179.8	-763.54	921.69	359.87	-775.4	920.63	287.32	-574.69	797.93	490.61	-703.78	781.61	111.72	-633.23	942.65	463.05	-686.79	920.49	124.64	-791.25	870.35	323.35	-493.98	609.44	457.72	-422.86	559.81	403.74	-478.45	523.1	434.07	-443.4	644.59	425.95	-438.03	457.86	405.74	-464.02	447.55	268.35	-503.9	243.62	395.09	-429.64	168.21	361.29	-494.75	171.66	380.06	-433.15	236.2	381.08	-482.85	84.617	359.08	-477.19	97.732	276.47	-544.82	72.081	303.71	-530.95	40.206	276.99	-540.41	41.392	340.3	-378.3	40.674	379.21	-348.05	33.972	271.94	-299.69	63.595	325.13	-748.37	569.38	137.66	-682.86	482.61	116.55	-755.87	479.42	152.33	-682.67	577.68	106.98	-717.91	408.61	122.73	-682.1	386.33	257.01	-892.62	366.99	150.06	-924.27	260.38	155.49	-953.44	326.53	170.98	-867.01	307.76	136.08	-1030.7	229.06	179.03	-1013.4	221.54	260.12	-1065.7	279.42	218.96	-1080.3	269.24	258.43	-1098.3	267.67	199.05	-1080.2	101.01	177.25	-1038.4	92.57	278.55	-1018.9	35.382	231.96	-723.89	1361	320.51	-793.76	1107.1	309.63
178	0.7375	-522.56	1067.8	299.84	-634.95	1290.2	459.7	-637.1	1307.2	169.4	-622.09	1588.3	317.22	-528.73	896.48	395.93	-554.43	871.81	180.34	-758.23	922.55	359.99	-769.97	921.4	287.41	-569.6	798.6	491.12	-697.58	782.07	112.25	-628.11	943.59	463.47	-681.11	921.11	124.97	-785.83	871.15	323.47	-490.16	609.32	458.02	-419.26	559.25	404.16	-475.22	522.91	434.25	-439.23	644.14	426.47	-435.18	457.42	406.02	-461.19	447.39	268.56	-502.78	243.83	394.84	-428.93	167.8	361.48	-494.15	171.79	379.88	-432	235.81	381.25	-482.71	84.678	359.01	-477.01	97.78	276.45	-544.79	72.128	303.69	-530.92	40.242	276.97	-540.37	41.457	340.3	-378.26	40.659	379.2	-348	33.844	271.88	-299.6	63.396	325.09	-739.48	569.25	137.14	-673	483.26	115.83	-745.96	479.16	151.59	-673.83	578.36	106.55	-707.24	408.97	121.76	-671.35	386.69	256.29	-881.67	367.87	149.36	-913.74	261.34	154.8	-942.51	327.61	170.45	-856.39	308.54	135.32	-1020.2	230.68	178.47	-1002.7	222.74	259.57	-1055	280.88	218.83	-1069.6	270.49	258.25	-1087.8	269.26	198.93	-1069.8	102.66	176.16	-1027.6	93.531	277.24	-1008.5	36.079	230.19	-718.23	1361.9	320.98	-788.16	1108.1	309.95
179	0.74167	-517.13	1068.7	300.03	-629.32	1290.9	460.01	-631.7	1308.2	169.66	-616.5	1589.2	318.36	-523.51	897.48	396.53	-548.73	872.83	180.85	-752.93	923.45	360.19	-764.57	922.22	287.58	-564.54	799.22	491.62	-691.44	782.62	112.78	-622.97	944.54	463.92	-675.52	921.8	125.32	-780.46	872	323.66	-486.5	609.18	458.31	-415.83	558.65	404.58	-472.17	522.7	434.41	-435.2	643.65	426.98	-432.49	456.97	406.28	-458.63	447.19	268.74	-501.75	244.03	394.56	-428.29	167.4	361.67	-493.61	171.92	379.69	-430.95	235.43	381.42	-482.6	84.74	358.95	-476.85	97.826	276.41	-544.76	72.172	303.65	-530.89	40.274	276.95	-540.34	41.52	340.29	-378.23	40.654	379.2	-347.95	33.736	271.83	-299.52	63.228	325.05	-730.58	569.22	136.64	-663.14	484.02	115.13	-736.04	479.02	150.87	-664.99	579.14	106.13	-696.55	409.44	120.82	-660.66	387.22	255.62	-870.72	368.72	148.68	-903.09	262.23	154.15	-931.54	328.59	169.94	-845.7	309.32	134.6	-1009.5	232.16	177.98	-991.88	223.82	259.06	-1044.5	282.04	218.75	-1058.8	271.36	258.12	-1077.2	270.45	198.84	-1058.8	104.07	175.01	-1016.3	94.351	275.91	-997.31	36.86	228.4	-712.61	1362.9	321.44	-782.6	1109.1	310.29
180	0.74583	-511.74	1069.6	300.19	-623.74	1291.6	460.32	-626.34	1309.3	169.89	-610.92	1590.2	319.47	-518.32	898.47	397.09	-543.09	873.94	181.34	-747.65	924.39	360.44	-759.2	923.1	287.8	-559.51	799.8	492.1	-685.37	783.25	113.32	-617.83	945.51	464.38	-670.01	922.58	125.69	-775.11	872.89	323.91	-483	609.01	458.58	-412.54	558.03	404.99	-469.28	522.48	434.55	-431.31	643.14	427.49	-429.94	456.53	406.5	-456.32	446.94	268.91	-500.8	244.22	394.28	-427.71	167.03	361.85	-493.13	172.04	379.49	-429.97	235.07	381.58	-482.5	84.803	358.88	-476.7	97.873	276.37	-544.74	72.213	303.62	-530.87	40.303	276.92	-540.31	41.582	340.27	-378.2	40.657	379.2	-347.92	33.644	271.78	-299.45	63.087	325.01	-721.68	569.29	136.15	-653.28	484.91	114.44	-726.1	478.99	150.16	-656.16	580.03	105.72	-685.85	410.01	119.91	-650.03	387.9	255.01	-859.76	369.53	148.02	-892.32	263.06	153.55	-920.54	329.47	169.44	-834.94	310.09	133.92	-998.64	233.47	177.54	-980.95	224.77	258.59	-1034	282.9	218.74	-1048.2	271.86	258.01	-1066.7	271.24	198.78	-1047.2	105.25	173.81	-1004.6	95.027	274.58	-985.36	37.701	226.6	-707.04	1363.9	321.87	-777.08	1110.1	310.65
181	0.75	-506.41	1070.5	300.32	-618.22	1292.4	460.63	-621.03	1310.5	170.11	-605.36	1591.3	320.53	-513.17	899.44	397.63	-537.5	875.13	181.81	-742.38	925.36	360.76	-753.87	924.02	288.09	-554.54	800.33	492.55	-679.36	783.96	113.84	-612.67	946.49	464.86	-664.58	923.43	126.08	-769.81	873.85	324.21	-479.63	608.83	458.82	-409.4	557.39	405.38	-466.53	522.25	434.66	-427.55	642.6	427.99	-427.52	456.09	406.7	-454.21	446.68	269.05	-499.92	244.4	394	-427.17	166.68	362.02	-492.68	172.15	379.29	-429.07	234.72	381.73	-482.41	84.869	358.8	-476.57	97.92	276.32	-544.73	72.255	303.57	-530.84	40.333	276.89	-540.29	41.645	340.25	-378.18	40.665	379.2	-347.88	33.565	271.73	-299.39	62.965	324.98	-712.78	569.46	135.67	-643.43	485.9	113.77	-716.15	479.07	149.47	-647.34	581.02	105.32	-675.13	410.68	119.05	-639.46	388.73	254.44	-848.81	370.28	147.39	-881.43	263.81	153	-909.52	330.24	168.94	-824.1	310.84	133.3	-987.67	234.61	177.14	-969.89	225.57	258.15	-1023.5	283.45	218.76	-1037.5	271.99	257.93	-1056.1	271.65	198.73	-1035.1	106.19	172.57	-992.31	95.556	273.23	-972.73	38.58	224.79	-701.52	1364.9	322.3	-771.6	1111.1	311.03
182	0.75417	-501.11	1071.5	300.44	-612.75	1293.1	460.92	-615.77	1311.7	170.3	-599.8	1592.3	321.55	-508.04	900.4	398.14	-531.97	876.39	182.26	-737.12	926.36	361.13	-748.56	924.99	288.43	-549.61	800.81	492.99	-673.41	784.74	114.36	-607.5	947.49	465.34	-659.21	924.36	126.49	-764.54	874.85	324.57	-476.39	608.65	459.05	-406.39	556.74	405.75	-463.92	522.02	434.75	-423.92	642.06	428.48	-425.22	455.66	406.88	-452.27	446.39	269.18	-499.08	244.57	393.73	-426.67	166.36	362.17	-492.26	172.26	379.1	-428.22	234.4	381.87	-482.32	84.937	358.73	-476.45	97.969	276.27	-544.71	72.297	303.53	-530.82	40.364	276.86	-540.27	41.71	340.23	-378.16	40.676	379.19	-347.85	33.494	271.69	-299.33	62.859	324.94	-703.87	569.73	135.2	-633.58	487.01	113.12	-706.19	479.27	148.79	-638.53	582.11	104.93	-664.41	411.45	118.22	-628.94	389.71	253.93	-837.87	370.99	146.77	-870.43	264.47	152.49	-898.47	330.89	168.45	-813.19	311.57	132.72	-976.56	235.57	176.79	-958.73	226.23	257.74	-1013.1	283.69	218.82	-1026.9	271.76	257.86	-1045.5	271.67	198.68	-1022.5	106.88	171.29	-979.63	95.936	271.88	-959.44	39.474	222.99	-696.03	1366	322.71	-766.17	1112.2	311.43
